<svg width="316" height="316" viewBox="0 0 316 316" fill="none" xmlns="http://www.w3.org/2000/svg">
  <!-- Background Circle -->
  <circle cx="158" cy="158" r="150" fill="#ECF0FF" stroke="#0560FD" stroke-width="2"/>
  
  <!-- Phone Device -->
  <rect x="108" y="88" width="100" height="180" rx="20" fill="#FFFFFF" stroke="#0560FD" stroke-width="2"/>
  
  <!-- Phone Screen -->
  <rect x="118" y="108" width="80" height="140" rx="10" fill="#0560FD"/>
  
  <!-- Screen Content -->
  <circle cx="158" cy="148" r="15" fill="#FFFFFF"/>
  <rect x="128" y="168" width="60" height="8" rx="4" fill="#FFFFFF"/>
  <rect x="128" y="180" width="40" height="6" rx="3" fill="#FFFFFF"/>
  <rect x="128" y="190" width="50" height="6" rx="3" fill="#FFFFFF"/>
  
  <!-- Hands holding phone -->
  <!-- Left hand -->
  <ellipse cx="88" cy="120" rx="20" ry="35" fill="#F4A261" opacity="0.8"/>
  <ellipse cx="88" cy="140" rx="15" ry="25" fill="#F4A261" opacity="0.8"/>
  
  <!-- Right hand -->
  <ellipse cx="228" cy="200" rx="20" ry="35" fill="#F4A261" opacity="0.8"/>
  <ellipse cx="228" cy="180" rx="15" ry="25" fill="#F4A261" opacity="0.8"/>
  
  <!-- Success indicators -->
  <circle cx="200" cy="120" r="8" fill="#10B981"/>
  <path d="M196 120L198 122L204 116" stroke="#FFFFFF" stroke-width="2" stroke-linecap="round" stroke-linejoin="round"/>
  
  <!-- Decorative elements -->
  <circle cx="60" cy="60" r="4" fill="#0091D0" opacity="0.6"/>
  <circle cx="256" cy="80" r="6" fill="#0560FD" opacity="0.4"/>
  <circle cx="80" cy="250" r="5" fill="#0091D0" opacity="0.5"/>
  <circle cx="240" cy="260" r="3" fill="#0560FD" opacity="0.3"/>
</svg>
